<svg xmlns="http://www.w3.org/2000/svg" viewBox="0 0 130 130" id="new-file">
  <polygon fill="#e26666" points="11.74 62.72 11.74 73.89 23.02 73.89 22.67 65.72 11.74 62.72"></polygon>
  <path fill="#bc5f5a" d="M24.7,55.77H18.5a6.76,6.76,0,1,0,0,13.51h6.2a.18.18,0,0,0,.18-.17V55.94A.18.18,0,0,0,24.7,55.77Z"></path>
  <path fill="#e5e6e8" d="M118.3,34V118a11,11,0,0,1-11,11H33.17a11,11,0,0,1-11-11V12a11,11,0,0,1,11-11H85.35Z"></path>
  <rect width="67.24" height="39.93" x="22.17" y="72.59" fill="#cdd1d4"></rect>
  <path fill="#cdd1d4" d="M85.35,26.29a11,11,0,0,0,11,11h22V34L85.35,4.32Z" opacity=".35"></path>
  <path fill="#e26666" d="M89.41,109.21H18.22a6.53,6.53,0,0,1-6.53-6.53l.05-33.4H89.41Z"></path>
  <path fill="#cdd1d4" d="M85.35,23a11,11,0,0,0,11,11h22l-33-33Z"></path>
  <path fill="#fff" d="M24.44 98.24v-18H28l7.37 12v-12h3.37v18H35.07L27.81 86.5V98.24zM42.55 98.24v-18H55.89v3H46.18v4h9v3h-9V95.2h10v3zM61.87 98.24l-4.3-18h3.72L64 92.6l3.29-12.35h4.32l3.15 12.56 2.76-12.56h3.66l-4.37 18H73L69.38 84.79 65.8 98.24z"></path>
</svg>
