<svg xmlns="http://www.w3.org/2000/svg" viewBox="0 0 64 64" id="SaveFile">
  <path fill="#344498" d="M59,14.87L47.88,3H11.97c-3.85,0-6.97,3.12-6.97,6.97V54.03c0,3.85,3.12,6.97,6.97,6.97H52.03c3.85,0,6.97-3.12,6.97-6.97V14.87Z" class="color348498 svgShape"></path>
  <path fill="#8a96d1" d="M45 3v14c0 2.21-1.79 4-4 4H23c-2.21 0-4-1.79-4-4V3M13 61v-23.99c0-2.21 1.79-4.01 4.01-4.01h29.98c2.21 0 4.01 1.79 4.01 4.01v23.99" class="color8ac6d1 svgShape"></path>
  <rect width="4" height="12" x="37" y="6" fill="#767fad" class="color7f7f7f svgShape"></rect>
  <circle cx="32" cy="47" r="10" fill="#a6b5ff" class="colorffeea6 svgShape"></circle>
  <path fill="#001fc0" d="M32,53l6-5h-3v-5.92c0-.6-.48-1.08-1.08-1.08h-3.83c-.6,0-1.08,.48-1.08,1.08v5.92h-3l6,5Z" class="color00c07f svgShape"></path>
  <path d="M48.61,2.32c-.19-.2-.45-.32-.73-.32H11.97c-4.4,0-7.97,3.58-7.97,7.97V54.03c0,4.4,3.58,7.97,7.97,7.97H52.03c4.4,0,7.97-3.58,7.97-7.97V14.87c0-.25-.1-.5-.27-.68L48.61,2.32Zm-28.61,1.68h24v13c0,1.65-1.34,3-3,3H23c-1.65,0-3-1.34-3-3V4Zm30,56H14v-22.99c0-1.66,1.35-3.01,3.01-3.01h29.98c1.66,0,3.01,1.35,3.01,3.01v22.99Zm8-5.97c0,3.29-2.68,5.97-5.97,5.97h-.03v-22.99c0-2.76-2.25-5.01-5.01-5.01H17.01c-2.76,0-5.01,2.25-5.01,5.01v22.99h-.03c-3.29,0-5.97-2.68-5.97-5.97V9.97c0-3.29,2.68-5.97,5.97-5.97h6.03v13c0,2.76,2.24,5,5,5h18c2.76,0,5-2.24,5-5V4h1.45l10.55,11.27V54.03Z" fill="#000000" class="color000000 svgShape"></path>
  <path d="M37 19h4c.55 0 1-.45 1-1V6c0-.55-.45-1-1-1h-4c-.55 0-1 .45-1 1v12c0 .55.45 1 1 1zm1-12h2v10h-2V7zM32 36c-6.07 0-11 4.93-11 11s4.93 11 11 11 11-4.93 11-11-4.93-11-11-11zm0 20c-4.96 0-9-4.04-9-9s4.04-9 9-9 9 4.04 9 9-4.04 9-9 9z" fill="#000000" class="color000000 svgShape"></path>
  <path d="M36,47v-4.92c0-1.15-.93-2.08-2.08-2.08h-3.83c-1.15,0-2.08,.93-2.08,2.08v4.92h-2c-.42,0-.8,.26-.94,.66s-.02,.84,.3,1.11l6,5c.19,.15,.41,.23,.64,.23s.46-.08,.64-.23l6-5c.32-.27,.44-.71,.3-1.11s-.52-.66-.94-.66h-2Zm-4,4.7l-3.24-2.7h.24c.55,0,1-.45,1-1v-5.92s.04-.08,.08-.08h3.83s.08,.04,.08,.08v5.92c0,.55,.45,1,1,1h.24l-3.24,2.7Z" fill="#000000" class="color000000 svgShape"></path>
</svg>
