<svg xmlns="http://www.w3.org/2000/svg" xml:space="preserve" id="Srtfile" x="0" y="0" version="1.1" viewBox="0 0 512 512">
  <g id="XMLID_490_" fill="#000000" class="color000000 svgShape">
    <g id="XMLID_332_" fill="#000000" class="color000000 svgShape">
      <g id="XMLID_333_" fill="#000000" class="color000000 svgShape">
        <path id="XMLID_334_" d="M455.4 139.4c-3.4-7.7-11.1-12.7-19.6-12.7h-4.6v-26.5l-6.5-6.5 6.5-6.5V68.4l-6.1-6.1 6.1-6.1v-8.1c0-11.8-9.6-21.4-21.4-21.4h-60.4c-11.8 0-21.4 9.6-21.4 21.4V56H195c-9.1 0-17.6 3.5-24 9.9l-85.6 85.6c-6.4 6.4-9.9 14.9-9.9 24V472c0 18.7 15.2 33.9 33.9 33.9h263c18.7 0 33.9-15.2 33.9-33.9V212.4l45.4-50c5.7-6.2 7.2-15.3 3.7-23z" opacity=".2" fill="#000000" class="color000000 svgShape"></path>
        <path id="XMLID_335_" d="M434.7 118.7c-3.4-7.7-11.1-12.7-19.6-12.7h-4.6V79.4l-6.5-6.5 6.5-6.5V47.7l-6.1-6.1 6.1-6.1v-8.1C410.6 15.6 401 6 389.2 6h-60.4c-11.8 0-21.4 9.6-21.4 21.4v7.9H174.3c-9.1 0-17.6 3.5-24 9.9l-85.6 85.6c-6.4 6.4-9.9 14.9-9.9 24v296.5c0 18.7 15.2 33.9 33.9 33.9h263c18.7 0 33.9-15.2 33.9-33.9V191.7l45.4-50c5.7-6.2 7.2-15.3 3.7-23z" fill="#ffffff" class="colorffffff svgShape"></path>
        <g id="XMLID_336_" fill="#000000" class="color000000 svgShape">
          <path id="XMLID_337_" d="M350 449.7H90.4V155.5L175 70.9h175z" fill="#ffffff" class="colorffffff svgShape"></path>
          <path id="XMLID_338_" d="M175 155.4V61.5l-91.6 93.9z" fill="#767fad" class="colorfec632 svgShape"></path>
          <path id="XMLID_344_" d="M351.7 53H174.3c-4.3 0-8.4 1.7-11.4 4.7l-85.6 85.6c-3 3-4.7 7.2-4.7 11.4v296.5c0 8.9 7.2 16.2 16.2 16.2h263c8.9 0 16.2-7.2 16.2-16.2l.1-382.1c-.2-8.8-7.4-16.1-16.4-16.1zM350 449.7H90.4V155.5L175 70.9h175v378.8z" fill="#3959ff" class="colorffde39 svgShape"></path>
          <g id="XMLID_347_" fill="#000000" class="color000000 svgShape">
            <path id="XMLID_38_" d="M392.8 123.7V79.4h-67.7v44.3h-22.3c-3.2 0-4.8 3.8-2.7 6.1l56.2 61.9c1.5 1.6 4 1.6 5.4 0l56.2-61.9c2.1-2.4.5-6.1-2.7-6.1h-22.4z" fill="#767fad" class="colorfec632 svgShape"></path>
            <path id="XMLID_37_" d="M325.1 47.7h67.7v18.6h-67.7z" fill="#767fad" class="colorfec632 svgShape"></path>
            <path id="XMLID_36_" d="M392.8 35.6v-8.1c0-2-1.6-3.7-3.7-3.7h-60.4c-2 0-3.7 1.6-3.7 3.7v8.1h67.8z" fill="#767fad" class="colorfec632 svgShape"></path>
          </g>
          <path id="XMLID_29_" d="M90.1 317.5v100.4h260.2V317.5H90.1z" fill="#3959ff" class="colorffde39 svgShape"></path>
          <path id="XMLID_348_" d="M171.9 407.6c-22 0-39.8-17.9-39.8-39.8 0-22 17.9-39.8 39.8-39.8h96.6c22 0 39.8 17.9 39.8 39.8 0 22-17.9 39.8-39.8 39.8h-96.6z" fill="#ffffff" class="colorffffff svgShape"></path>
          <path id="XMLID_27_" d="M268.5 400.7h-96.6c-18.2 0-33-14.8-33-33s14.8-33 33-33h96.6c18.2 0 33 14.8 33 33s-14.8 33-33 33z" fill="#767fad" class="colorfec632 svgShape"></path>
        </g>
      </g>
      <g id="XMLID_351_" fill="#000000" class="color000000 svgShape">
        <path id="XMLID_22_" d="M108.1 200.7h222.5v12.7H108.1z" fill="#3959ff" class="colorffde39 svgShape"></path>
        <path id="XMLID_19_" d="M108.1 229.6h222.5v12.7H108.1z" fill="#3959ff" class="colorffde39 svgShape"></path>
        <path id="XMLID_16_" d="M108.1 258.6h222.5v12.7H108.1z" fill="#3959ff" class="colorffde39 svgShape"></path>
        <path id="XMLID_13_" d="M108.1 287.6h178.7v12.7H108.1z" fill="#3959ff" class="colorffde39 svgShape"></path>
      </g>
    </g>
    <g id="XMLID_2210_" fill="#000000" class="color000000 svgShape">
      <path id="XMLID_2132_" d="M194.4 380.4c0-.9-.5-1.8-1.6-2.5s-3-1.4-5.8-2c-4.4-.9-7.8-2.2-10-4-2.2-1.8-3.4-4.3-3.4-7.5 0-3.3 1.4-6.2 4.2-8.5 2.8-2.3 6.6-3.5 11.4-3.5 5.1 0 9.1 1.1 12.1 3.4s4.4 5.2 4.3 8.8l-.1.2H194c0-1.5-.4-2.6-1.1-3.4-.7-.8-2-1.2-3.7-1.2-1.2 0-2.3.3-3.1 1-.8.7-1.3 1.5-1.3 2.6 0 1 .5 1.9 1.5 2.6 1 .7 2.9 1.3 5.9 1.9 4.7.9 8.1 2.3 10.3 4.1 2.2 1.8 3.3 4.4 3.3 7.7 0 3.4-1.5 6.2-4.5 8.4s-7 3.3-12 3.3c-5.2 0-9.3-1.3-12.3-3.9-3-2.6-4.4-5.5-4.3-8.8l.1-.2h10.7c0 1.8.6 3.1 1.6 3.9 1 .8 2.5 1.2 4.4 1.2 1.6 0 2.8-.3 3.6-.9.9-.7 1.3-1.6 1.3-2.7z" fill="#ffffff" class="colorffffff svgShape"></path>
      <path id="XMLID_2134_" d="M237.4 363.2h-3.9c-1.4 0-2.5.3-3.3.8-.9.5-1.5 1.2-1.9 2.1v25h-11.9v-38h11.2l.4 5.6c.8-2 1.8-3.5 3.2-4.6 1.3-1.1 2.8-1.6 4.6-1.6.5 0 1 0 1.4.1.4.1.9.2 1.3.3l-1.1 10.3z" fill="#ffffff" class="colorffffff svgShape"></path>
      <path id="XMLID_2136_" d="M261 343.7v9.4h6v8.2h-6v17.4c0 1.4.3 2.3.8 2.9.5.6 1.3.9 2.2.9.6 0 1.1 0 1.5-.1.4 0 .8-.1 1.4-.3l.8 8.8c-1.2.3-2.3.5-3.2.6-1 .1-2.1.2-3.4.2-3.9 0-6.9-1-8.9-3.1s-3-5.4-3-9.9v-17.5h-5.3V353h5.3v-9.4H261z" fill="#ffffff" class="colorffffff svgShape"></path>
    </g>
  </g>
</svg>
